# xmcd
#
# Track frame offsets: 
#        150
#        13527
#        27035
#        40900
#        54849
#        67606
#        80267
#        93848
#        107226
#        118788
#        132828
#        146641
#        160722
#        173666
#        188046
#        201940
#        216360
#        230744
#
# Disc length: 3243 seconds
#
# Revision: 0
# Processed by: cddbd v1.5.2PL0 Copyright (c) Steve Scherf et al.
# Submitted via: ExactAudioCopy v0.95b3
#
DISCID=e80ca912
DTITLE=Billie Holiday  - Volume 07 1938-1939 Complete Edition
DYEAR=1900
DGENRE=
TTITLE0=You're So Desirable
TTITLE1=You're So Desirable
TTITLE2=You're Gonna See A Lot Of Me
TTITLE3=You're Gonna See A Lot Of Me
TTITLE4=Hello My Darling
TTITLE5=Hello My Darling
TTITLE6=Let's Dream In The Moonlight
TTITLE7=Let's Dream In The Moonlight
TTITLE8=I Cried For You
TTITLE9=Jeepers Creepers
TTITLE10=That's All I Ask Of You
TTITLE11=That's All I Ask Of You
TTITLE12=Dream Of Life
TTITLE13=What Shall I Say
TTITLE14=It's Easy To Blame The Weather
TTITLE15=More Than You Know
TTITLE16=More Than You Know
TTITLE17=Sugar
EXTD=
EXTT0=
EXTT1=
EXTT2=
EXTT3=
EXTT4=
EXTT5=
EXTT6=
EXTT7=
EXTT8=
EXTT9=
EXTT10=
EXTT11=
EXTT12=
EXTT13=
EXTT14=
EXTT15=
EXTT16=
EXTT17=
PLAYORDER=
